<?xml version="1.0" standalone="no"?>
<!DOCTYPE svg PUBLIC "-//W3C//DTD SVG 20010904//EN"
 "http://www.w3.org/TR/2001/REC-SVG-20010904/DTD/svg10.dtd">
<svg version="1.0" xmlns="http://www.w3.org/2000/svg"
 width="200.000000pt" height="200.000000pt" viewBox="0 0 200.000000 200.000000"
 preserveAspectRatio="xMidYMid meet">

<g transform="translate(0.000000,200.000000) scale(0.100000,-0.100000)"
fill="#000000" stroke="none">
<path d="M1020 1720 c0 -11 -7 -20 -15 -20 -8 0 -15 -9 -15 -20 0 -11 7 -20
15 -20 9 0 15 -9 15 -24 0 -13 -7 -29 -15 -36 -21 -17 -19 -63 3 -83 26 -23
58 -21 76 5 22 30 20 61 -4 83 -11 10 -20 25 -20 32 0 8 9 17 20 20 11 3 20
14 20 24 0 12 -7 19 -20 19 -13 0 -20 7 -20 20 0 13 -7 20 -20 20 -13 0 -20
-7 -20 -20z"/>
<path d="M722 1567 l-22 -23 25 -74 c14 -40 25 -79 25 -86 0 -8 -36 3 -99 31
-91 39 -101 42 -120 28 -12 -8 -21 -22 -21 -32 0 -14 39 -138 65 -209 4 -10
12 -9 37 4 18 9 34 17 35 19 2 1 -7 30 -18 64 -12 34 -19 64 -17 66 2 3 43
-12 90 -31 67 -28 88 -42 92 -60 4 -13 10 -34 16 -48 9 -24 9 -25 48 -9 l40
15 -39 116 c-22 64 -38 120 -37 123 2 4 52 -22 111 -57 l108 -64 109 65 c61
36 112 65 114 65 3 0 -13 -53 -35 -117 -21 -64 -39 -120 -39 -123 0 -9 47 -30
64 -30 7 0 19 19 25 43 12 42 15 44 99 80 47 20 88 35 90 32 2 -2 -5 -32 -17
-66 -16 -49 -18 -65 -8 -71 15 -10 57 -22 61 -17 1 2 19 51 40 108 l37 105
-23 22 -23 23 -102 -44 c-59 -25 -103 -38 -103 -32 0 7 11 46 24 87 l25 75
-24 24 -23 24 -143 -87 c-78 -47 -145 -86 -148 -86 -4 0 -69 38 -146 85 -77
47 -143 85 -146 85 -3 0 -15 -10 -27 -23z"/>
<path d="M630 1130 c-11 -11 -20 -29 -20 -40 0 -11 9 -29 20 -40 11 -11 29
-20 40 -20 11 0 29 9 40 20 11 11 20 29 20 40 0 11 -9 29 -20 40 -11 11 -29
20 -40 20 -11 0 -29 -9 -40 -20z"/>
<path d="M880 1130 c-11 -11 -20 -29 -20 -40 0 -11 9 -29 20 -40 11 -11 29
-20 40 -20 11 0 29 9 40 20 11 11 20 29 20 40 0 11 -9 29 -20 40 -11 11 -29
20 -40 20 -11 0 -29 -9 -40 -20z"/>
<path d="M1130 1130 c-11 -11 -20 -29 -20 -40 0 -25 34 -60 58 -60 31 0 62 29
62 59 0 55 -61 80 -100 41z"/>
<path d="M1394 1142 c-6 -4 -16 -16 -22 -28 -12 -24 2 -60 31 -78 26 -17 71
12 75 48 6 47 -46 83 -84 58z"/>
<path d="M620 940 l0 -30 425 0 425 0 0 30 0 30 -425 0 -425 0 0 -30z"/>
<path d="M365 736 c-50 -58 -93 -105 -97 -105 -5 -1 -8 44 -8 99 l0 100 -40 0
-40 0 0 -220 c0 -121 1 -223 3 -227 2 -7 17 -8 64 -4 9 1 13 33 15 108 l3 106
94 -116 94 -117 29 27 c15 15 28 30 28 33 0 4 -34 47 -75 95 -41 48 -75 91
-75 96 0 5 36 47 80 93 l80 83 -28 26 c-16 15 -30 27 -33 27 -3 0 -45 -47 -94
-104z"/>
<path d="M658 823 l-38 -15 0 -217 0 -216 41 0 42 0 -6 162 c-4 90 -3 163 1
163 5 0 53 -72 107 -160 53 -88 101 -163 106 -165 4 -3 26 2 48 11 l41 16 0
214 0 214 -40 0 -40 0 -2 -166 -3 -166 -108 171 c-60 94 -109 171 -110 170 -1
0 -19 -7 -39 -16z"/>
<path d="M1190 824 c0 -8 -59 -361 -66 -396 -4 -23 0 -29 26 -43 18 -9 36 -13
40 -8 4 4 15 72 25 151 10 79 22 145 27 148 4 3 8 0 8 -7 0 -6 20 -75 45 -154
l45 -142 35 1 c19 1 37 5 40 8 3 3 30 74 59 159 61 175 57 178 77 -43 6 -71
13 -128 14 -128 7 0 75 31 75 34 0 6 -50 357 -56 394 -5 32 -7 33 -46 30 l-41
-3 -55 -165 c-30 -91 -56 -167 -58 -169 -8 -9 -15 10 -61 172 l-48 167 -42 0
c-24 0 -43 -3 -43 -6z"/>
<path d="M1750 601 c0 -213 1 -229 18 -226 9 2 27 4 40 4 l22 1 0 225 0 225
-40 0 -40 0 0 -229z"/>
</g>
</svg>
